<svg xmlns="http://www.w3.org/2000/svg" viewBox="0 0 999.22 307.45">
  <g id="Layer_2" data-name="Layer 2">
    <g id="Layer_1-2" data-name="Layer 1">
      <g>
        <path d="M550.33,170.08a54.54,54.54,0,0,1,11.75,34.44q0,27.94-19.52,44.28t-54.44,16.35H384.31V42.3H484.62q34,0,53.17,15.55T557,100.07q0,19.68-10.32,32.7t-27.46,18.09a51.84,51.84,0,0,1,31.11,19.21ZM438.59,132.46h35.55q13.33,0,20.48-5.87t7.14-17.3q0-11.43-7.14-17.46t-20.48-6H438.59v46.67Zm61.11,82.69q7.46-6.19,7.46-17.94t-7.78-18.41q-7.78-6.66-21.43-6.67H438.59v49.2h40q13.65,0,21.11-6.19Z" style="fill: #252d60"/>
        <path d="M787.47,265.15H733.19L642.4,127.69V265.15H588.12V42.3H642.4l90.79,138.09V42.3h33.38a20.91,20.91,0,0,1,20.91,20.91v202Z" style="fill: #252d60"/>
        <path d="M987.47,170.08a54.54,54.54,0,0,1,11.75,34.44q0,27.94-19.52,44.28t-54.44,16.35H821.45V42.3H921.76q34,0,53.17,15.55t19.21,42.22q0,19.68-10.32,32.7t-27.46,18.09a51.84,51.84,0,0,1,31.11,19.21ZM875.72,132.46h35.55q13.34,0,20.48-5.87t7.14-17.3q0-11.43-7.14-17.46t-20.48-6H875.72v46.67Zm61.11,82.69q7.45-6.19,7.46-17.94t-7.78-18.41q-7.78-6.66-21.43-6.67H875.72v49.2h40q13.65,0,21.11-6.19Z" style="fill: #252d60"/>
      </g>
      <path d="M307.45,150V0h-150V110.1H150V75A75,75,0,0,0,75,0h0a75,75,0,0,0,0,150H110.1v7.49H75a75,75,0,0,0-75,75H0a75,75,0,0,0,75,75h0a75,75,0,0,0,75-75V197.35h7.49v35.11a75,75,0,0,0,75,75h0a75,75,0,0,0,75-75h0a75,75,0,0,0-75-75H197.35V150ZM197.34,39.88h70.23v70.23H197.34ZM75,110.11A35.11,35.11,0,1,1,110.1,75v35.11ZM110.1,232.46A35.11,35.11,0,1,1,75,197.35H110.1Zm147.19-24.83a35.11,35.11,0,1,1-59.94,24.83V197.35h35.11A34.89,34.89,0,0,1,257.29,207.63Z" style="fill: #f40000"/>
    </g>
  </g>
</svg>
